<svg width="24" height="24" viewBox="0 0 24 24" fill="none" xmlns="http://www.w3.org/2000/svg">
<circle cx="12" cy="12" r="12" fill="#4498C6"/>
<path d="M7.71423 15.2857C7.16195 15.2857 6.71423 15.7334 6.71423 16.2857C6.71423 16.838 7.16195 17.2857 7.71423 17.2857V15.2857ZM16.2857 16.2857V17.2857C16.8379 17.2857 17.2857 16.838 17.2857 16.2857H16.2857ZM16.2857 9.90148H17.2857C17.2857 9.61997 17.167 9.3515 16.9588 9.162L16.2857 9.90148ZM11.9999 6L12.6731 5.26052C12.2916 4.91316 11.7083 4.91316 11.3268 5.26052L11.9999 6ZM7.71423 9.90148L7.04105 9.162C6.83289 9.3515 6.71423 9.61997 6.71423 9.90148H7.71423ZM6.71423 13.0936C6.71423 13.6459 7.16195 14.0936 7.71423 14.0936C8.26652 14.0936 8.71423 13.6459 8.71423 13.0936H6.71423ZM7.71423 17.2857H16.2857V15.2857H7.71423V17.2857ZM17.2857 16.2857V9.90148H15.2857V16.2857H17.2857ZM16.9588 9.162L12.6731 5.26052L11.3268 6.73948L15.6125 10.641L16.9588 9.162ZM11.3268 5.26052L7.04105 9.162L8.38741 10.641L12.6731 6.73948L11.3268 5.26052ZM6.71423 9.90148V13.0936H8.71423V9.90148H6.71423Z" fill="white"/>
</svg>
