<svg width="10" height="14" viewBox="0 0 10 14" fill="none" xmlns="http://www.w3.org/2000/svg">
<path fill-rule="evenodd" clip-rule="evenodd" d="M8.88889 2H6.55556C6.33333 1.33333 5.72222 0.888885 5 0.888885C4.27778 0.888885 3.66667 1.33333 3.44444 2H1.11111C0.5 2 0 2.5 0 3.11111V12C0 12.6111 0.5 13.1111 1.11111 13.1111H8.88889C9.5 13.1111 10 12.6111 10 12V3.11111C10 2.5 9.5 2 8.88889 2ZM5 2C5.33333 2 5.55556 2.22222 5.55556 2.55555C5.55556 2.88889 5.33333 3.11111 5 3.11111C4.66667 3.11111 4.44444 2.88889 4.44444 2.55555C4.44444 2.22222 4.66667 2 5 2ZM8.88889 12H1.11111V3.11111H2.22222V4.77777H7.77778V3.11111H8.88889V12Z" fill="#4498C6"/>
</svg>
